<svg xmlns="http://www.w3.org/2000/svg" xmlns:xlink="http://www.w3.org/1999/xlink" width="1920" zoomAndPan="magnify" viewBox="0 0 1440 809.999993" height="1080" preserveAspectRatio="xMidYMid meet" version="1.0"><defs><clipPath id="c9ab77bd17"><path d="M 483 0 L 1440 0 L 1440 707 L 483 707 Z M 483 0 " clip-rule="nonzero"/></clipPath><clipPath id="deff930a3b"><path d="M 898.683594 -339.59375 L 1606.324219 9.355469 L 1143.601562 947.71875 L 435.960938 598.769531 Z M 898.683594 -339.59375 " clip-rule="nonzero"/></clipPath><clipPath id="40690bac83"><path d="M 898.683594 -339.59375 L 1606.324219 9.355469 L 1143.601562 947.71875 L 435.960938 598.769531 Z M 898.683594 -339.59375 " clip-rule="nonzero"/></clipPath></defs><path fill="#161616" d="M 653.890625 436.972656 C 646.867188 416.230469 637.613281 396.449219 626.121094 377.941406 C 602.816406 340.292969 571.53125 308.066406 534.503906 283.65625 C 520.136719 274.085938 502.738281 263.398438 483.90625 255.261719 C 471.617188 249.996094 458.6875 246.324219 445.597656 244.410156 C 436.183594 242.816406 426.445312 241.699219 417.1875 240.582031 C 411.121094 239.945312 404.898438 239.148438 398.832031 238.347656 C 391.492188 237.390625 383.988281 236.117188 376.648438 235 C 361.003906 232.605469 344.882812 230.054688 328.761719 228.9375 C 279.761719 225.585938 230.601562 230.214844 183.199219 242.976562 C 159.574219 249.355469 136.429688 257.652344 114.246094 268.023438 C 108.816406 270.574219 103.390625 273.289062 97.964844 276 C -6.101562 330.242188 -87.183594 430.109375 -118.628906 543.382812 C -150.070312 656.652344 -132.355469 783.960938 -70.90625 884.148438 C -57.019531 906.804688 -42.8125 917.332031 -27.332031 916.695312 C -9.613281 915.898438 1.082031 900.902344 11.457031 886.382812 C 17.199219 878.40625 22.945312 870.269531 29.96875 864.207031 C 49.441406 847.457031 78.492188 848.890625 99.082031 855.914062 C 116.640625 861.816406 132.601562 871.867188 148.082031 881.4375 C 153.351562 884.628906 158.617188 887.980469 164.042969 891.167969 C 219.269531 923.714844 283.59375 940.148438 347.757812 940.148438 C 396.117188 940.304688 444.164062 930.734375 488.695312 911.75 C 525.5625 895.957031 549.347656 876.8125 561.796875 852.882812 C 579.511719 818.582031 572.488281 778.378906 565.625 739.449219 C 558.605469 699.566406 551.421875 658.40625 571.851562 625.0625 C 581.429688 609.269531 596.433594 597.304688 610.957031 585.660156 C 625.480469 574.011719 640.804688 561.886719 650.699219 545.457031 C 671.929688 511.15625 664.105469 467.441406 653.890625 436.972656 Z M 647.828125 544.179688 C 638.089844 559.972656 623.246094 571.9375 608.722656 583.425781 C 594.039062 595.230469 578.875 607.355469 568.820312 623.628906 C 547.75 657.929688 555.09375 699.726562 562.273438 740.25 C 568.980469 778.695312 576 818.261719 558.761719 851.605469 C 546.792969 874.738281 523.328125 893.5625 487.257812 908.878906 C 384.785156 952.75 261.566406 944.933594 165.480469 888.457031 C 160.214844 885.265625 154.785156 881.917969 149.519531 878.726562 C 133.878906 868.992188 117.757812 858.941406 99.878906 852.882812 C 90.144531 849.53125 79.769531 847.933594 69.554688 847.933594 C 54.710938 847.933594 39.707031 851.765625 27.734375 861.972656 C 20.394531 868.195312 14.488281 876.652344 8.582031 884.789062 C -1.792969 899.304688 -11.527344 913.027344 -27.648438 913.664062 C -41.855469 914.300781 -55.101562 904.09375 -68.351562 882.714844 C -129.164062 783.164062 -146.878906 656.652344 -115.597656 544.179688 C -84.3125 431.707031 -3.867188 332.636719 99.71875 278.871094 C 104.988281 276.160156 110.414062 273.445312 115.839844 270.894531 C 137.867188 260.683594 160.691406 252.386719 184.15625 246.007812 C 231.242188 233.402344 280.082031 228.777344 328.601562 232.128906 C 344.566406 233.246094 360.683594 235.796875 376.328125 238.191406 C 383.667969 239.304688 391.171875 240.421875 398.511719 241.539062 C 404.578125 242.335938 410.804688 243.136719 416.867188 243.773438 C 426.125 244.890625 435.863281 246.007812 445.28125 247.441406 C 458.207031 249.515625 470.816406 253.027344 482.789062 258.132812 C 501.460938 266.109375 518.542969 276.796875 532.746094 286.210938 C 569.457031 310.300781 600.261719 342.207031 623.40625 379.539062 C 634.738281 397.886719 643.996094 417.507812 650.859375 437.929688 C 660.914062 467.921875 668.578125 510.515625 647.828125 544.179688 Z M 595.316406 383.6875 C 584.621094 366.296875 572.011719 350.023438 557.804688 335.507812 C 553.335938 330.878906 548.546875 326.414062 543.761719 322.105469 C 533.066406 312.691406 521.734375 304.078125 509.761719 296.421875 C 497.152344 288.285156 480.394531 278.074219 462.199219 270.574219 C 450.707031 265.789062 438.574219 262.597656 426.285156 260.84375 C 418.945312 259.726562 411.921875 258.929688 405.855469 258.292969 L 398.355469 257.492188 C 393.246094 257.015625 387.820312 256.375 382.550781 255.738281 C 376.167969 254.941406 369.785156 254.144531 363.398438 253.1875 C 348.234375 251.113281 332.753906 249.039062 317.113281 248.242188 C 294.285156 247.125 271.621094 247.921875 248.957031 250.472656 C 226.613281 252.867188 204.585938 257.015625 183.039062 263.078125 C 161.488281 268.980469 140.421875 276.796875 120.152344 286.527344 C 115.203125 288.921875 110.253906 291.316406 105.308594 294.027344 C 63.808594 316.363281 26.457031 345.558594 -4.984375 380.496094 C -47.28125 426.921875 -77.769531 482.917969 -94.046875 543.542969 C -107.457031 595.070312 -110.488281 648.835938 -102.828125 701.640625 C -95.324219 754.449219 -77.128906 805.019531 -49.195312 850.488281 C -36.589844 870.75 -23.820312 880.320312 -9.773438 879.84375 C 6.347656 879.203125 15.925781 865.964844 25.339844 853.039062 C 30.449219 846.019531 35.714844 838.683594 42.101562 833.578125 C 56.945312 821.132812 80.246094 818.582031 104.191406 826.398438 C 121.746094 832.140625 137.867188 841.554688 153.667969 850.648438 C 157.820312 853.039062 161.96875 855.433594 166.277344 857.828125 C 222.460938 889.253906 285.03125 905.6875 345.363281 905.6875 C 367.546875 905.6875 389.574219 903.453125 411.28125 898.828125 C 430.914062 894.519531 450.226562 888.136719 468.582031 879.84375 C 502.101562 864.6875 523.808594 846.339844 534.820312 823.527344 C 549.824219 792.417969 543.441406 756.363281 537.214844 721.582031 C 534.820312 708.339844 532.425781 694.621094 531.152344 681.378906 C 528.4375 652.183594 532.269531 631.285156 543.441406 613.417969 C 552.378906 599.058594 566.265625 588.050781 579.511719 577.203125 C 593.078125 566.195312 607.285156 555.027344 616.542969 539.871094 C 636.496094 507.644531 629.789062 467.125 620.535156 438.886719 C 614.308594 419.421875 605.847656 401.074219 595.316406 383.6875 Z M 613.988281 537.796875 C 605.050781 552.316406 591.164062 563.484375 577.757812 574.332031 C 564.351562 585.179688 550.304688 596.507812 540.886719 611.34375 C 529.234375 629.851562 525.40625 651.386719 528.117188 681.21875 C 529.394531 694.621094 531.789062 708.183594 534.183594 721.582031 C 540.40625 755.882812 546.632812 791.460938 532.109375 821.613281 C 521.414062 843.628906 500.34375 861.65625 467.464844 876.492188 C 449.269531 884.628906 430.277344 891.011719 410.804688 895.15625 C 389.414062 899.785156 367.390625 902.019531 345.523438 902.019531 C 285.828125 902.019531 223.738281 885.746094 168.035156 854.636719 C 163.882812 852.242188 159.734375 849.851562 155.425781 847.457031 C 139.464844 838.363281 123.183594 828.949219 105.464844 823.046875 C 96.527344 820.015625 87.269531 818.421875 77.855469 818.421875 C 63.328125 818.421875 50.082031 822.570312 40.34375 830.863281 C 33.800781 836.449219 28.375 843.789062 23.105469 850.964844 C 13.691406 863.730469 4.910156 875.855469 -9.613281 876.332031 C -22.382812 876.8125 -34.195312 867.71875 -46.164062 848.414062 C -100.910156 760.03125 -117.671875 646.121094 -90.695312 544.019531 C -74.574219 483.875 -44.410156 428.355469 -2.429688 382.25 C 28.851562 347.632812 65.882812 318.753906 106.902344 296.578125 C 111.691406 294.027344 116.640625 291.632812 121.585938 289.242188 C 141.699219 279.667969 162.449219 272.011719 183.835938 265.949219 C 205.222656 260.046875 227.25 255.898438 249.277344 253.503906 C 271.78125 250.953125 294.445312 250.316406 317.113281 251.429688 C 332.59375 252.230469 348.074219 254.304688 363.078125 256.375 C 369.304688 257.175781 375.847656 258.132812 382.234375 258.929688 C 387.5 259.566406 392.925781 260.046875 398.195312 260.683594 L 405.695312 261.480469 C 411.761719 262.121094 418.785156 262.917969 425.964844 264.035156 C 438.097656 265.789062 449.75 268.980469 461.082031 273.605469 C 478.957031 280.945312 495.558594 291.15625 508.007812 299.132812 C 519.816406 306.789062 530.992188 315.246094 541.523438 324.5 C 546.3125 328.648438 550.941406 333.113281 555.410156 337.738281 C 569.457031 352.257812 581.90625 368.210938 592.441406 385.601562 C 602.816406 402.671875 611.277344 420.859375 617.5 439.84375 C 626.757812 467.28125 633.460938 506.6875 613.988281 537.796875 Z M 564.507812 389.429688 C 554.773438 373.316406 543.121094 358.320312 529.875 344.917969 C 525.722656 340.613281 521.253906 336.464844 516.785156 332.636719 C 506.890625 323.859375 496.195312 316.042969 485.023438 309.023438 C 467.785156 298.175781 454.058594 290.996094 440.492188 285.730469 C 429.796875 281.582031 418.464844 278.710938 407.132812 277.117188 C 400.109375 276.160156 393.40625 275.519531 388.136719 274.882812 L 379.519531 274.085938 C 375.210938 273.765625 370.742188 273.289062 366.429688 272.808594 C 361.164062 272.332031 355.898438 271.691406 350.628906 271.054688 C 335.945312 269.457031 320.78125 267.703125 305.777344 267.226562 C 284.710938 266.746094 263.480469 267.863281 242.574219 270.574219 C 222.460938 272.96875 202.511719 277.117188 182.878906 282.699219 C 163.40625 288.285156 144.410156 295.621094 126.054688 304.558594 C 121.109375 306.949219 116.796875 309.183594 112.648438 311.417969 C 74.660156 332.476562 40.503906 359.757812 11.613281 391.980469 C -27.332031 434.898438 -54.941406 486.90625 -68.828125 543.0625 C -80.160156 589.167969 -82.238281 636.871094 -75.375 683.773438 C -68.511719 730.675781 -52.070312 775.507812 -27.011719 815.867188 C -15.839844 833.578125 -4.664062 842.191406 7.464844 842.191406 L 8.261719 842.191406 C 22.628906 841.714844 31.40625 830.226562 39.867188 819.058594 C 44.496094 812.996094 49.28125 806.773438 54.871094 802.148438 C 67.957031 791.460938 88.707031 789.226562 110.09375 796.246094 C 128.609375 802.148438 145.050781 810.921875 162.289062 820.015625 L 169.152344 823.6875 C 212.726562 846.660156 274.335938 870.75 341.371094 870.75 C 359.726562 870.75 378.082031 868.835938 395.960938 865.164062 C 414.316406 861.175781 432.191406 855.113281 449.109375 846.976562 C 479.117188 832.621094 499.070312 814.433594 508.484375 793.054688 C 520.777344 765.136719 514.871094 733.390625 509.285156 702.4375 C 506.890625 689.355469 504.335938 675.796875 503.21875 662.714844 C 501.144531 636.710938 504.972656 617.085938 515.507812 600.816406 C 523.808594 587.734375 536.417969 577.683594 548.546875 567.789062 C 561.15625 557.738281 574.085938 547.210938 582.863281 533.332031 C 601.539062 503.496094 595.632812 466.324219 587.492188 440.320312 C 581.90625 422.613281 574.246094 405.542969 564.507812 389.429688 Z M 580.152344 531.574219 C 571.851562 544.976562 558.921875 555.1875 546.632812 565.238281 C 534.183594 575.128906 521.414062 585.5 512.796875 598.898438 C 501.941406 615.8125 497.792969 636.230469 500.027344 662.875 C 501.144531 676.117188 503.699219 689.675781 506.089844 702.917969 C 511.996094 734.664062 517.425781 764.65625 505.613281 791.621094 C 496.515625 812.199219 477.042969 829.90625 447.832031 843.945312 C 431.234375 851.921875 413.515625 857.984375 395.480469 861.972656 C 308.972656 880.320312 225.496094 849.691406 170.746094 820.8125 L 164.042969 817.144531 C 147.285156 808.210938 130.046875 799.117188 111.210938 793.054688 C 103.230469 790.34375 94.773438 789.066406 86.3125 788.90625 C 73.382812 788.90625 61.734375 792.578125 53.113281 799.597656 C 47.207031 804.382812 42.261719 810.761719 37.632812 817.144531 C 29.171875 828.3125 21.351562 838.683594 8.421875 839 C -2.910156 839.320312 -13.445312 831.183594 -24.136719 814.273438 C -73.617188 735.460938 -88.621094 637.027344 -65.636719 543.859375 C -51.910156 488.183594 -24.457031 436.652344 14.007812 394.214844 C 42.738281 362.148438 76.578125 335.1875 114.246094 314.289062 C 118.234375 312.054688 122.542969 309.820312 127.492188 307.429688 C 145.6875 298.652344 164.523438 291.316406 183.835938 285.730469 C 203.148438 280.148438 222.941406 276.160156 243.050781 273.765625 C 263.800781 271.054688 284.871094 269.9375 305.777344 270.417969 C 320.78125 270.894531 335.785156 272.488281 350.46875 274.246094 C 355.738281 274.882812 361.003906 275.363281 366.273438 276 C 370.582031 276.476562 375.050781 276.796875 379.359375 277.277344 L 387.820312 278.074219 C 392.925781 278.550781 399.789062 279.191406 406.652344 280.308594 C 417.828125 281.902344 428.839844 284.613281 439.375 288.761719 C 452.621094 294.027344 466.1875 301.046875 483.265625 311.734375 C 494.28125 318.753906 504.816406 326.414062 514.550781 335.027344 C 519.019531 338.855469 523.328125 343.003906 527.480469 347.3125 C 540.566406 360.554688 552.058594 375.390625 561.636719 391.183594 C 571.214844 406.980469 578.875 423.730469 584.460938 441.277344 C 592.601562 466.644531 598.1875 502.859375 580.152344 531.574219 Z M 533.703125 395.332031 C 524.765625 380.496094 514.230469 366.777344 502.101562 354.492188 C 498.269531 350.503906 494.121094 346.675781 489.972656 343.164062 C 480.714844 335.1875 470.816406 328.007812 460.441406 321.628906 C 447.355469 313.332031 433.46875 306.472656 419.101562 300.886719 C 409.046875 297.21875 398.511719 294.664062 387.980469 293.390625 C 382.871094 292.75 377.445312 292.113281 370.421875 291.632812 L 360.527344 290.835938 C 357.175781 290.515625 353.820312 290.359375 350.46875 290.039062 L 338.339844 289.082031 C 323.976562 287.804688 309.128906 286.527344 294.285156 286.527344 L 294.128906 286.527344 C 274.8125 286.6875 255.339844 288.125 236.1875 290.996094 C 218.152344 293.546875 200.277344 297.378906 182.71875 302.640625 C 165.160156 307.90625 148.242188 314.765625 131.960938 322.902344 C 127.332031 325.296875 123.503906 327.210938 119.992188 329.285156 C 86.953125 348.109375 55.988281 373.15625 28.054688 403.949219 C -7.539062 443.351562 -32.4375 491.214844 -44.089844 543.0625 C -63.082031 626.5 -48.878906 713.605469 -5.144531 781.886719 C 4.910156 797.683594 15.125 805.019531 25.980469 805.019531 C 38.75 804.859375 46.410156 794.96875 54.070312 785.398438 C 58.0625 780.292969 62.371094 775.027344 67.320312 771.039062 C 78.8125 762.105469 96.847656 760.351562 115.679688 766.253906 C 136.113281 772.632812 154.625 781.410156 171.863281 789.863281 C 214.480469 810.761719 274.335938 835.96875 337.222656 835.96875 C 351.746094 835.96875 366.273438 834.535156 380.636719 831.664062 C 397.714844 828.152344 414.15625 822.410156 429.636719 814.433594 C 456.453125 800.710938 474.167969 783.324219 482.148438 762.902344 C 491.886719 738.175781 486.460938 710.414062 481.351562 683.613281 C 478.796875 670.691406 476.246094 657.289062 475.445312 644.367188 C 473.851562 621.074219 477.679688 603.207031 487.734375 588.210938 C 495.398438 576.566406 506.890625 567.3125 517.902344 558.539062 C 529.394531 549.285156 541.367188 539.554688 549.507812 526.949219 C 566.902344 499.667969 561.957031 465.527344 554.773438 441.917969 C 549.347656 425.644531 542.484375 410.011719 533.703125 395.332031 Z M 546.472656 525.355469 C 538.652344 537.636719 527 547.050781 515.667969 556.144531 C 504.335938 565.238281 492.84375 574.492188 484.863281 586.617188 C 474.488281 602.25 470.5 620.757812 472.09375 644.6875 C 473.050781 657.769531 475.605469 671.328125 478.160156 684.25 C 483.425781 711.851562 488.535156 738.015625 479.117188 761.785156 C 471.457031 781.410156 454.21875 798.160156 428.042969 811.5625 C 412.878906 819.378906 396.757812 825.121094 380 828.632812 C 302.90625 844.585938 225.015625 812.519531 173.140625 786.992188 C 155.902344 778.539062 137.230469 769.761719 116.640625 763.222656 C 109.457031 760.988281 101.953125 759.710938 94.453125 759.710938 C 83.121094 759.710938 72.90625 762.742188 65.402344 768.488281 C 60.136719 772.632812 55.828125 778.058594 51.675781 783.324219 C 44.175781 792.734375 37.3125 801.511719 26.140625 801.671875 L 25.660156 801.671875 C 16.082031 801.671875 6.828125 794.652344 -2.429688 779.972656 C -45.6875 712.328125 -59.730469 626.179688 -40.898438 543.542969 C -29.40625 492.332031 -4.824219 444.949219 30.289062 405.863281 C 57.902344 375.390625 88.707031 350.34375 121.425781 331.835938 C 124.9375 329.921875 128.609375 327.847656 133.238281 325.457031 C 149.359375 317.320312 166.277344 310.617188 183.515625 305.355469 C 200.914062 300.089844 218.632812 296.261719 236.507812 293.867188 C 255.5 290.996094 274.65625 289.558594 293.96875 289.402344 L 294.128906 289.402344 C 308.8125 289.402344 323.496094 290.675781 337.859375 291.953125 L 349.832031 292.910156 L 359.886719 293.707031 C 363.238281 293.867188 366.429688 294.1875 369.785156 294.507812 C 376.804688 295.144531 382.074219 295.621094 387.339844 296.261719 C 397.714844 297.539062 407.769531 300.089844 417.507812 303.597656 C 431.710938 309.183594 445.4375 316.042969 458.367188 324.179688 C 468.742188 330.402344 478.480469 337.582031 487.578125 345.398438 C 491.726562 348.90625 495.714844 352.738281 499.546875 356.566406 C 511.519531 368.691406 522.050781 382.089844 530.832031 396.769531 C 539.449219 411.125 546.3125 426.601562 551.261719 442.714844 C 558.285156 466.007812 563.074219 499.03125 546.472656 525.355469 Z M 502.898438 401.234375 C 494.917969 387.675781 485.34375 375.230469 474.167969 364.222656 C 470.5 360.554688 466.828125 357.203125 462.835938 353.851562 C 454.21875 346.675781 445.121094 340.132812 435.382812 334.390625 C 423.253906 327.050781 410.324219 320.988281 396.917969 316.203125 C 387.660156 313.011719 378.082031 310.9375 368.347656 309.820312 C 363.558594 309.34375 358.449219 308.863281 352.226562 308.386719 C 348.394531 308.226562 344.40625 307.90625 340.574219 307.746094 L 333.871094 307.429688 L 326.367188 306.949219 C 312.003906 306.152344 297.160156 305.195312 282.476562 305.671875 C 264.757812 306.3125 247.042969 308.226562 229.484375 311.257812 C 213.523438 313.808594 197.722656 317.480469 182.238281 322.425781 C 166.757812 327.371094 151.914062 333.59375 137.546875 341.089844 C 133.398438 343.324219 130.046875 345.078125 127.015625 346.832031 C 97.804688 364.0625 69.871094 387.355469 44.335938 415.753906 C 12.09375 451.648438 -9.773438 495.519531 -19.03125 542.902344 C -33.714844 615.652344 -20.625 690.3125 16.882812 747.746094 C 25.660156 761.148438 34.4375 767.6875 43.855469 767.6875 C 54.871094 767.6875 61.734375 759.550781 68.277344 751.734375 C 71.628906 747.429688 75.460938 743.597656 79.609375 740.089844 C 93.65625 729.71875 113.289062 734.1875 121.109375 736.421875 C 139.304688 741.683594 157.019531 748.226562 174.417969 755.882812 C 222.460938 777.582031 275.773438 801.511719 330.839844 801.511719 C 342.328125 801.511719 353.820312 800.394531 365.15625 798.160156 C 380.796875 794.96875 395.800781 789.386719 409.84375 781.726562 C 426.125 772.632812 447.355469 756.839844 455.496094 732.589844 C 462.675781 711.054688 457.890625 687.28125 453.261719 664.46875 C 450.707031 651.707031 447.992188 638.625 447.355469 625.863281 C 446.238281 605.28125 450.066406 589.488281 459.484375 575.765625 C 466.507812 565.558594 476.722656 557.261719 486.617188 549.285156 C 497.152344 540.828125 508.007812 532.054688 515.347656 520.566406 C 531.46875 495.679688 527.480469 464.890625 521.414062 443.351562 C 516.945312 428.835938 510.71875 414.476562 502.898438 401.234375 Z M 512.476562 519.132812 C 505.292969 530.140625 494.757812 538.753906 484.382812 547.210938 C 474.328125 555.347656 463.953125 563.644531 456.613281 574.332031 C 446.714844 588.691406 442.726562 605.28125 443.84375 626.5 C 444.480469 639.421875 447.195312 652.664062 449.910156 665.585938 C 454.695312 689.199219 459.324219 711.371094 452.300781 732.113281 C 444.480469 755.246094 423.890625 770.5625 408.089844 779.335938 C 394.363281 786.992188 379.679688 792.417969 364.355469 795.609375 C 298.4375 808.691406 233.15625 779.335938 175.695312 753.332031 C 158.296875 745.511719 140.421875 738.972656 122.226562 733.546875 C 115.839844 731.472656 109.136719 730.515625 102.433594 730.359375 C 92.855469 730.359375 84.398438 732.75 77.855469 737.535156 C 73.382812 741.046875 69.394531 745.195312 65.882812 749.660156 C 59.5 757.320312 53.433594 764.5 43.855469 764.5 C 35.554688 764.5 27.574219 758.4375 19.4375 745.992188 C -17.753906 689.199219 -30.683594 615.492188 -16.15625 543.542969 C -6.898438 496.796875 14.808594 453.402344 46.570312 417.988281 C 71.949219 389.910156 99.5625 366.933594 128.609375 349.707031 C 131.484375 347.949219 134.835938 346.195312 138.984375 343.960938 C 153.191406 336.464844 168.035156 330.402344 183.195312 325.457031 C 198.519531 320.667969 214.003906 317 229.964844 314.449219 C 247.359375 311.417969 264.917969 309.503906 282.636719 308.863281 C 297.160156 308.386719 311.84375 309.34375 326.210938 310.140625 L 333.710938 310.617188 L 340.414062 310.9375 C 344.246094 311.097656 348.234375 311.257812 352.066406 311.578125 C 358.292969 311.894531 363.398438 312.375 368.027344 313.011719 C 377.605469 313.96875 386.863281 316.203125 395.960938 319.234375 C 409.046875 324.019531 421.816406 330.082031 433.789062 337.261719 C 443.363281 342.84375 452.300781 349.226562 460.761719 356.40625 C 464.59375 359.597656 468.261719 363.105469 471.933594 366.617188 C 482.789062 377.464844 492.363281 389.75 500.1875 402.992188 C 508.007812 416.070312 514.070312 430.109375 518.222656 444.789062 C 524.128906 465.367188 527.957031 495.203125 512.476562 519.132812 Z M 472.09375 406.980469 C 465.070312 394.695312 456.292969 383.527344 446.238281 373.636719 C 442.886719 370.445312 439.375 367.253906 435.863281 364.382812 C 428.042969 357.839844 419.421875 352.097656 410.644531 347.152344 C 399.472656 340.769531 387.660156 335.507812 375.371094 331.519531 C 366.910156 328.804688 358.132812 327.050781 349.191406 326.253906 C 344.722656 325.773438 340.09375 325.457031 334.507812 325.296875 C 330.039062 325.136719 325.410156 324.976562 320.941406 324.816406 L 316.152344 324.65625 C 301.46875 324.179688 286.148438 323.859375 271.144531 324.816406 C 255.023438 326.09375 239.0625 328.328125 223.257812 331.679688 C 209.375 334.230469 195.648438 337.738281 182.238281 342.367188 C 168.832031 346.992188 155.902344 352.738281 143.453125 359.597656 C 140.742188 361.03125 137.546875 362.945312 134.355469 364.859375 C 108.976562 380.816406 84.238281 401.875 60.773438 427.878906 C 32.683594 458.988281 13.210938 499.828125 5.867188 542.902344 C -4.664062 604.644531 7.304688 666.863281 38.910156 713.605469 C 43.695312 720.625 51.199219 730.199219 61.734375 730.359375 L 62.210938 730.359375 C 71.148438 730.359375 77.054688 724.136719 82.640625 718.074219 C 85.515625 714.722656 88.707031 711.691406 92.21875 709.140625 C 100.359375 703.554688 112.96875 702.757812 126.855469 706.746094 L 136.75 709.457031 C 150.476562 712.96875 163.882812 717.433594 177.132812 722.539062 C 186.230469 726.210938 195.648438 730.359375 204.746094 734.1875 C 243.210938 750.777344 282.792969 767.847656 323.816406 767.847656 C 332.59375 767.847656 341.210938 767.050781 349.832031 765.457031 C 364.195312 762.582031 377.765625 757.320312 390.214844 749.660156 C 404.578125 741.046875 422.933594 725.890625 429 702.917969 C 433.945312 684.570312 429.636719 665.746094 425.328125 645.644531 C 422.613281 633.359375 419.742188 620.597656 419.261719 607.992188 C 418.625 590.445312 422.613281 575.925781 431.394531 563.800781 C 437.777344 554.867188 446.714844 547.53125 455.496094 540.511719 C 465.070312 532.851562 474.808594 524.875 481.671875 514.503906 C 496.515625 492.011719 493.480469 464.570312 488.375 445.265625 C 484.542969 432.027344 479.117188 419.101562 472.09375 406.980469 Z M 478.636719 512.75 C 472.09375 522.640625 462.515625 530.460938 453.261719 537.957031 C 444.480469 545.136719 435.222656 552.476562 428.679688 561.726562 C 419.421875 574.492188 415.273438 589.648438 415.910156 607.835938 C 416.390625 620.597656 419.261719 633.519531 421.976562 646.121094 C 426.285156 665.746094 430.4375 684.25 425.808594 701.800781 C 419.902344 723.65625 402.183594 738.175781 388.457031 746.628906 C 376.328125 754.128906 362.921875 759.234375 349.035156 761.945312 C 299.714844 771.359375 251.988281 750.777344 205.863281 730.996094 C 196.765625 727.167969 187.347656 723.019531 178.25 719.347656 C 165 714.246094 151.433594 709.777344 137.546875 706.269531 L 127.8125 703.394531 C 113.128906 699.25 99.5625 700.207031 90.621094 706.269531 C 86.953125 708.980469 83.441406 712.171875 80.40625 715.679688 C 74.980469 721.582031 69.714844 727.167969 61.890625 727.007812 C 55.027344 726.847656 48.644531 721.902344 41.621094 711.691406 C 10.335938 665.746094 -1.472656 604.324219 8.902344 543.382812 C 16.242188 500.785156 35.398438 460.582031 63.007812 429.792969 C 86.3125 403.949219 110.734375 383.046875 135.953125 367.414062 C 139.144531 365.5 142.335938 363.746094 144.890625 362.308594 C 157.179688 355.609375 169.949219 349.863281 183.039062 345.398438 C 196.285156 340.929688 209.851562 337.421875 223.738281 334.867188 C 239.378906 331.679688 255.339844 329.445312 271.304688 328.167969 C 286.148438 327.210938 300.671875 327.53125 316.152344 328.007812 L 320.941406 328.167969 C 325.410156 328.328125 329.878906 328.328125 334.507812 328.648438 C 340.09375 328.804688 344.722656 329.125 349.035156 329.605469 C 357.652344 330.402344 366.273438 332.15625 374.410156 334.707031 C 386.542969 338.699219 398.195312 343.800781 409.207031 350.183594 C 417.984375 355.128906 426.285156 360.714844 433.945312 367.09375 C 437.457031 369.964844 440.96875 373.15625 444.164062 376.1875 C 454.058594 385.917969 462.515625 396.929688 469.378906 408.894531 C 476.242188 420.699219 481.511719 433.300781 485.023438 446.542969 C 489.972656 464.730469 492.84375 491.375 478.636719 512.75 Z M 441.289062 412.882812 C 435.0625 402.03125 427.402344 391.980469 418.464844 383.367188 C 415.433594 380.496094 412.238281 377.625 408.886719 375.070312 C 401.707031 369.328125 394.042969 364.222656 385.902344 359.914062 C 375.6875 354.332031 364.835938 350.023438 353.664062 346.675781 C 345.839844 344.601562 337.859375 343.164062 329.878906 342.6875 C 325.730469 342.367188 321.421875 342.207031 316.632812 342.046875 C 311.84375 341.886719 306.578125 342.046875 301.46875 342.046875 C 287.421875 342.046875 273.378906 342.6875 259.492188 344.121094 C 245.125 346.035156 230.761719 348.589844 216.554688 352.097656 C 204.746094 354.652344 193.09375 358 181.761719 362.308594 C 170.429688 366.617188 159.574219 371.878906 149.039062 377.941406 C 146.644531 379.378906 143.933594 380.972656 141.378906 382.730469 C 119.511719 397.246094 98.445312 415.914062 76.894531 440.003906 C 51.996094 467.761719 35.554688 504.296875 30.449219 543.0625 C 23.746094 594.433594 34.4375 642.933594 60.617188 679.785156 C 64.605469 685.367188 70.832031 692.867188 79.289062 693.34375 C 86.792969 693.824219 91.738281 689.199219 96.527344 684.570312 C 98.921875 682.179688 101.476562 680.105469 104.347656 678.1875 C 113.289062 672.925781 125.578125 675.160156 132.121094 676.914062 C 138.507812 678.667969 144.890625 680.105469 150.957031 681.378906 C 160.53125 683.292969 169.949219 685.6875 179.367188 688.878906 C 193.414062 693.824219 207.617188 700.207031 221.34375 706.425781 C 251.351562 719.988281 282.316406 733.867188 314.71875 733.867188 C 321.101562 733.867188 327.484375 733.230469 333.871094 732.113281 C 346.800781 729.71875 359.25 724.613281 370.101562 717.117188 C 387.660156 705.308594 398.832031 689.675781 402.023438 672.765625 C 404.898438 657.609375 401.066406 642.292969 396.917969 626.179688 C 393.882812 614.214844 390.851562 601.929688 390.691406 589.808594 C 390.53125 574.96875 394.523438 562.367188 402.824219 551.519531 C 408.570312 544.019531 416.230469 537.636719 423.730469 531.574219 C 432.191406 524.714844 441.128906 517.535156 447.195312 508.445312 C 460.761719 488.34375 458.6875 464.09375 454.695312 447.183594 C 451.824219 435.058594 447.355469 423.570312 441.289062 412.882812 Z M 444.800781 506.527344 C 438.894531 515.304688 430.277344 522.324219 421.976562 529.023438 C 414.316406 535.246094 406.492188 541.785156 400.429688 549.445312 C 391.648438 560.929688 387.5 574.171875 387.660156 589.648438 C 387.820312 602.25 391.011719 614.695312 394.042969 626.820312 C 398.035156 642.773438 401.707031 657.609375 398.992188 672.128906 C 395.960938 688.082031 385.265625 703.078125 368.507812 714.402344 C 357.972656 721.582031 346 726.527344 333.550781 728.921875 C 295.085938 735.941406 258.375 719.351562 222.941406 703.394531 C 209.214844 697.175781 194.847656 690.632812 180.804688 685.847656 C 171.386719 682.816406 161.808594 680.261719 152.074219 678.347656 C 146.007812 677.074219 139.625 675.636719 133.398438 673.882812 C 126.375 671.96875 113.128906 669.734375 103.230469 675.476562 C 100.199219 677.390625 97.328125 679.625 94.933594 682.179688 C 90.464844 686.484375 86.152344 690.472656 79.929688 689.996094 C 72.90625 689.515625 67.160156 682.816406 63.648438 677.710938 C 37.949219 641.496094 27.574219 593.796875 34.121094 543.222656 C 39.066406 505.09375 55.347656 469.039062 79.769531 441.757812 C 101.15625 417.988281 121.90625 399.480469 143.613281 385.121094 C 146.167969 383.367188 148.722656 381.929688 151.117188 380.496094 C 161.332031 374.433594 172.183594 369.328125 183.355469 365.019531 C 194.53125 360.871094 206.023438 357.523438 217.671875 354.96875 C 231.71875 351.460938 245.925781 348.90625 260.128906 346.992188 C 274.015625 345.558594 287.902344 344.917969 301.789062 344.917969 C 306.894531 344.917969 311.84375 344.917969 316.792969 344.917969 C 321.738281 344.917969 325.890625 345.238281 329.878906 345.558594 C 337.703125 346.035156 345.363281 347.472656 353.023438 349.546875 C 363.878906 352.738281 374.410156 357.042969 384.46875 362.46875 C 392.449219 366.617188 400.109375 371.5625 407.132812 377.304688 C 410.324219 379.859375 413.515625 382.570312 416.390625 385.441406 C 433.789062 402.511719 446.238281 424.050781 451.984375 447.660156 C 455.8125 464.09375 457.730469 487.542969 444.800781 506.527344 Z M 410.484375 418.625 C 405.21875 409.050781 398.511719 400.277344 390.691406 392.78125 C 387.980469 390.226562 385.105469 387.835938 382.074219 385.441406 C 375.527344 380.335938 368.507812 376.027344 361.164062 372.519531 C 351.90625 367.890625 342.011719 364.382812 331.957031 361.828125 C 324.933594 360.234375 317.910156 359.277344 310.726562 358.957031 C 307.054688 358.800781 303.066406 358.800781 298.914062 358.800781 C 294.925781 358.800781 290.617188 358.957031 285.347656 359.277344 C 272.738281 359.914062 260.289062 361.191406 248 363.265625 C 235.230469 365.5 222.78125 368.851562 210.171875 372.519531 C 200.433594 375.070312 191.019531 378.421875 181.601562 382.25 C 172.34375 386.238281 163.40625 390.867188 154.945312 396.289062 C 152.871094 397.566406 150.796875 399 148.722656 400.4375 C 130.84375 413.359375 112.808594 430.113281 93.496094 451.648438 C 71.628906 476.058594 58.0625 508.601562 55.667969 542.902344 C 52.792969 582.46875 62.53125 618.84375 82.800781 645.644531 C 85.992188 649.792969 90.941406 655.375 97.328125 656.015625 C 103.230469 656.652344 107.222656 653.78125 111.054688 651.066406 C 112.96875 649.632812 114.882812 648.355469 116.957031 647.398438 C 123.34375 644.527344 131.960938 645.644531 138.027344 647.238281 C 144.890625 648.835938 151.914062 650.109375 158.9375 650.910156 C 166.757812 651.707031 174.578125 653.300781 182.238281 655.214844 C 198.519531 660.003906 214.480469 667.980469 229.804688 675.636719 C 253.90625 687.761719 278.644531 700.207031 304.980469 700.207031 C 309.609375 700.207031 314.078125 699.886719 318.546875 699.089844 C 330.199219 697.015625 341.214844 692.070312 350.628906 684.890625 C 365.3125 673.722656 374.414062 658.40625 375.6875 642.933594 C 376.648438 630.808594 372.976562 618.363281 369.464844 606.398438 C 366.113281 595.070312 362.601562 583.425781 362.921875 571.777344 C 363.078125 559.972656 367.230469 548.488281 374.890625 539.394531 C 379.839844 533.332031 386.382812 527.90625 392.609375 522.800781 C 400.109375 516.578125 407.929688 510.359375 413.515625 502.222656 C 423.09375 488.5 426.125 469.515625 421.65625 448.9375 C 419.582031 438.246094 415.75 428.039062 410.484375 418.625 Z M 410.964844 500.308594 C 405.695312 507.964844 398.035156 514.1875 390.691406 520.25 C 384.308594 525.515625 377.605469 530.9375 372.496094 537.160156 C 364.355469 546.730469 359.886719 558.855469 359.726562 571.460938 C 359.566406 583.585938 363.078125 595.550781 366.429688 607.035156 C 370.101562 619.320312 373.453125 630.808594 372.496094 642.453125 C 371.21875 657.128906 362.601562 671.488281 348.714844 682.019531 C 339.777344 689.039062 329.242188 693.664062 318.070312 695.578125 C 287.421875 700.683594 260.128906 686.964844 231.242188 672.445312 C 215.757812 664.628906 199.636719 656.492188 183.039062 651.867188 C 175.214844 649.792969 167.234375 648.355469 159.253906 647.398438 C 152.234375 646.601562 145.371094 645.324219 138.664062 643.730469 C 132.121094 642.132812 122.703125 640.859375 115.523438 644.046875 C 113.289062 645.164062 111.054688 646.441406 108.976562 648.039062 C 105.308594 650.75 102.113281 652.984375 97.484375 652.503906 C 92.378906 651.867188 87.910156 646.921875 85.195312 643.25 C 65.246094 617.246094 55.828125 581.511719 58.699219 542.742188 C 61.09375 509.242188 74.34375 477.492188 95.730469 453.402344 C 114.882812 432.027344 132.761719 415.273438 150.476562 402.511719 C 152.550781 401.074219 154.625 399.640625 156.542969 398.363281 C 164.84375 393.097656 173.621094 388.472656 182.71875 384.644531 C 191.816406 380.816406 201.234375 377.625 210.808594 375.070312 C 223.417969 371.5625 235.710938 368.210938 248.320312 365.976562 C 260.609375 363.902344 272.898438 362.628906 285.347656 361.988281 C 290.617188 361.671875 294.925781 361.511719 298.757812 361.511719 C 302.90625 361.511719 306.738281 361.511719 310.40625 361.671875 C 317.429688 361.988281 324.292969 362.945312 330.996094 364.542969 C 340.894531 366.933594 350.46875 370.445312 359.566406 374.910156 C 366.75 378.421875 373.613281 382.730469 380 387.675781 C 382.871094 389.910156 385.746094 392.300781 388.296875 394.855469 C 395.960938 402.191406 402.503906 410.648438 407.609375 419.902344 C 412.71875 428.996094 416.390625 438.886719 418.625 449.097656 C 422.933594 469.199219 420.21875 487.226562 410.964844 500.308594 Z M 379.679688 424.527344 C 375.371094 416.230469 369.625 408.734375 362.761719 402.351562 C 360.367188 400.117188 357.8125 398.042969 355.097656 395.96875 C 349.191406 391.664062 342.96875 387.992188 336.265625 385.121094 C 327.804688 381.453125 319.027344 378.742188 310.089844 376.984375 C 303.863281 375.871094 297.640625 375.230469 291.253906 375.230469 C 287.902344 375.230469 284.390625 375.230469 280.878906 375.390625 C 277.367188 375.550781 273.21875 375.871094 269.066406 376.347656 C 258.054688 377.464844 247.203125 379.539062 236.347656 382.25 C 225.496094 384.960938 214.640625 388.792969 203.628906 392.621094 C 195.964844 395.171875 188.625 398.203125 181.441406 401.875 C 174.257812 405.542969 167.394531 409.691406 160.851562 414.316406 C 159.414062 415.433594 157.660156 416.550781 156.0625 417.988281 C 138.027344 432.664062 122.066406 449.894531 110.09375 463.453125 C 90.78125 485.3125 80.40625 513.707031 80.726562 542.902344 C 81.207031 569.863281 89.824219 594.273438 104.988281 611.503906 C 107.542969 614.375 110.894531 617.726562 115.042969 618.683594 C 118.554688 619.320312 122.066406 619 125.257812 617.566406 C 126.535156 617.085938 127.972656 616.609375 129.25 616.289062 C 132.761719 615.492188 137.546875 615.8125 143.773438 617.246094 C 150.796875 618.523438 157.820312 619.160156 164.84375 619.160156 C 171.707031 619.320312 178.410156 619.957031 185.113281 621.074219 C 201.871094 624.746094 217.832031 633.996094 232.996094 643.089844 C 252.308594 654.417969 272.261719 666.066406 294.128906 666.066406 C 297.160156 666.066406 300.191406 665.90625 303.226562 665.425781 C 313.601562 663.671875 323.335938 659.046875 331.15625 652.027344 C 343.128906 641.335938 349.992188 626.660156 349.195312 612.460938 C 348.714844 603.207031 345.363281 594.113281 342.011719 585.179688 C 338.179688 574.808594 334.191406 564.121094 334.828125 553.273438 C 335.46875 543.699219 339.296875 535.085938 346.800781 526.789062 C 351.269531 522.164062 356.058594 517.855469 361.164062 513.867188 C 367.867188 508.445312 374.730469 502.699219 379.839844 495.839844 C 388.617188 484.035156 391.648438 467.921875 388.777344 450.53125 C 387.019531 441.277344 383.988281 432.503906 379.679688 424.527344 Z M 377.125 493.925781 C 372.335938 500.464844 365.632812 506.050781 359.089844 511.472656 C 353.820312 515.621094 348.875 519.929688 344.40625 524.714844 C 336.425781 533.492188 332.273438 542.742188 331.636719 553.113281 C 330.839844 564.757812 334.988281 575.765625 338.976562 586.296875 C 342.328125 595.390625 345.523438 603.847656 346 612.621094 C 346.640625 625.863281 340.253906 639.582031 329.082031 649.632812 C 321.738281 656.332031 312.640625 660.800781 302.746094 662.394531 C 278.324219 666.222656 257.097656 653.621094 234.59375 640.378906 C 219.109375 631.285156 202.988281 621.875 185.75 618.203125 C 178.886719 616.925781 171.863281 616.289062 165 616.128906 C 158.136719 615.96875 151.273438 615.332031 144.410156 613.898438 C 140.898438 613.097656 137.230469 612.621094 133.558594 612.460938 C 131.960938 612.460938 130.207031 612.621094 128.609375 612.9375 C 127.171875 613.257812 125.578125 613.738281 124.300781 614.214844 C 121.425781 615.171875 119.035156 615.96875 115.839844 615.332031 C 112.648438 614.695312 109.617188 611.664062 107.382812 609.109375 C 92.699219 592.519531 84.398438 568.90625 83.917969 542.585938 C 83.597656 514.1875 93.816406 486.746094 112.488281 465.367188 C 124.300781 451.96875 140.261719 434.898438 158.136719 420.378906 C 159.734375 419.101562 161.332031 417.828125 162.765625 416.871094 C 169.152344 412.242188 175.855469 408.09375 182.878906 404.585938 C 189.902344 401.074219 197.242188 398.042969 204.746094 395.492188 C 215.757812 391.664062 226.453125 387.992188 237.144531 385.28125 C 247.679688 382.570312 258.535156 380.65625 269.386719 379.539062 C 273.539062 379.058594 277.367188 378.742188 281.039062 378.582031 C 284.710938 378.421875 288.0625 378.261719 291.253906 378.421875 C 297.320312 378.421875 303.542969 379.058594 309.609375 380.175781 C 318.386719 381.773438 327.007812 384.484375 335.148438 388.152344 C 341.53125 391.023438 347.757812 394.535156 353.34375 398.683594 C 355.898438 400.597656 358.449219 402.671875 360.683594 404.746094 C 367.230469 410.808594 372.816406 418.144531 376.964844 425.964844 C 381.117188 433.78125 384.148438 442.234375 385.585938 451.011719 C 388.296875 467.601562 385.425781 482.757812 377.125 493.925781 Z M 334.828125 411.925781 C 332.753906 410.011719 330.359375 408.253906 328.125 406.660156 C 310.886719 394.695312 287.742188 389.589844 262.84375 392.300781 C 238.582031 394.855469 214.800781 404.746094 196.925781 413.199219 C 184.472656 418.785156 172.980469 426.441406 163.085938 436.015625 C 149.839844 448.777344 137.390625 462.976562 126.375 475.578125 C 108.816406 495.519531 100.996094 520.726562 105.625 543.222656 C 110.253906 566.035156 128.289062 584.222656 149.359375 587.574219 C 156.0625 588.371094 162.765625 588.371094 169.46875 587.734375 C 175.535156 587.09375 181.761719 587.09375 187.824219 587.734375 C 204.265625 589.804688 218.632812 600.335938 232.675781 610.386719 C 248 621.554688 263.800781 632.882812 282.15625 632.882812 C 284.070312 632.882812 285.988281 632.722656 287.902344 632.5625 C 311.367188 628.414062 327.007812 606.238281 322.859375 582.785156 C 322.859375 582.628906 322.859375 582.628906 322.859375 582.46875 C 321.421875 575.765625 318.070312 569.386719 315.035156 563.164062 C 310.40625 553.75 305.9375 544.976562 307.054688 535.40625 C 308.652344 522.960938 318.707031 514.824219 329.242188 506.050781 C 335.308594 501.105469 341.53125 496 346.320312 489.9375 C 364.515625 465.6875 355.257812 429.953125 334.828125 411.925781 Z M 343.449219 487.703125 C 338.976562 493.445312 332.914062 498.394531 327.007812 503.339844 C 316.3125 511.953125 305.460938 521.046875 303.703125 534.765625 C 302.425781 545.296875 307.214844 555.027344 312.003906 564.441406 C 315.035156 570.503906 318.230469 576.726562 319.664062 583.105469 C 323.496094 604.804688 309.128906 625.382812 287.421875 629.371094 C 267.949219 631.925781 251.671875 620.277344 234.59375 607.835938 C 220.226562 597.464844 205.542969 586.777344 188.304688 584.703125 C 185.589844 584.382812 182.878906 584.222656 180.164062 584.222656 C 176.492188 584.222656 172.824219 584.382812 169.3125 584.703125 C 162.925781 585.339844 156.382812 585.339844 149.839844 584.542969 C 130.367188 581.511719 113.128906 563.960938 108.660156 542.742188 C 104.191406 521.523438 111.851562 497.117188 128.769531 477.972656 C 139.78125 465.527344 152.234375 451.328125 165.320312 438.726562 C 175.058594 429.472656 186.230469 421.976562 198.359375 416.550781 C 216.078125 408.253906 239.539062 398.523438 263.320312 395.96875 C 287.582031 393.417969 309.929688 398.203125 326.527344 409.691406 C 328.761719 411.285156 330.996094 412.882812 332.914062 414.796875 C 352.066406 431.386719 361.003906 465.050781 343.449219 487.703125 Z M 343.449219 487.703125 " fill-opacity="1" fill-rule="nonzero"/><g clip-path="url(#c9ab77bd17)"><g clip-path="url(#deff930a3b)"><g clip-path="url(#40690bac83)"><path fill="#161616" d="M 1541.394531 99.351562 C 1545.875 52.800781 1523.46875 3.160156 1481.023438 -33.945312 C 1432.621094 -76.300781 1368.8125 -88.816406 1312.425781 -99.984375 C 1299.347656 -102.503906 1286.179688 -104.839844 1273.289062 -107.265625 C 1247.785156 -111.753906 1221.261719 -116.515625 1195.65625 -123.132812 C 1172.277344 -129.113281 1148.792969 -137.230469 1126.332031 -145.070312 C 1095.980469 -155.648438 1064.605469 -166.496094 1032.425781 -172.425781 C 972.886719 -183.300781 915.945312 -176.019531 872.160156 -151.859375 C 866.152344 -148.578125 860.707031 -145.027344 855.074219 -141.101562 C 783.636719 -89.902344 762.265625 3.550781 750.671875 88.417969 C 749.871094 94.726562 748.976562 100.757812 748.175781 107.0625 C 737.484375 187.292969 726.617188 269.75 675.886719 330.46875 C 654.066406 356.453125 625.917969 377.003906 598.691406 396.621094 C 581.800781 408.859375 564.355469 421.289062 548.496094 435.1875 C 508.46875 469.988281 471.527344 527.105469 487.660156 581.972656 C 499.359375 621.945312 534.238281 647.230469 568.792969 664.269531 C 580.867188 670.226562 592.941406 675.253906 604.078125 679.359375 C 701.648438 716.148438 777.894531 715.15625 830.5 676.390625 C 883.101562 637.625 900.894531 568.292969 911.363281 498.351562 L 912.363281 494.453125 C 916.269531 479.507812 919.339844 464.847656 921.78125 453.804688 C 923.410156 446.285156 924.945312 438.492188 926.664062 430.789062 C 928.304688 425.589844 929.757812 420.300781 931.214844 415.472656 C 941.042969 381.492188 951.335938 348.441406 967.027344 319.898438 C 971.351562 314.40625 975.957031 309.28125 980.84375 304.527344 C 1009.789062 276.742188 1051.390625 259.355469 1104.90625 252.929688 C 1146.199219 247.875 1188.457031 249.761719 1229.417969 251.472656 C 1243.875 252.132812 1258.609375 252.695312 1273.433594 253.074219 C 1325.324219 254.167969 1385.535156 251.96875 1439.972656 227.277344 C 1496.074219 201.5625 1536.113281 151.285156 1541.394531 99.351562 Z M 836.429688 624.546875 C 789.101562 661.984375 720.015625 667.664062 631.394531 641.296875 C 606.527344 634.117188 586.5625 625.890625 569.925781 616.070312 C 545.113281 601.292969 529.082031 583.679688 521.558594 562.40625 C 514.503906 542.523438 515.589844 519.714844 524.546875 496.867188 C 532.136719 477.730469 544.726562 458.75 562.417969 440.207031 C 567.117188 435.359375 572.09375 430.417969 577.164062 425.753906 C 591.644531 412.789062 607.515625 400.742188 622.925781 389.160156 C 649.410156 369.175781 676.722656 348.441406 697.988281 322.183594 C 747.785156 261.007812 759.214844 179.753906 770.378906 100.910156 L 772.253906 87.738281 C 776.988281 54.253906 784.539062 10.835938 799.71875 -27.433594 C 801.636719 -32.265625 803.835938 -37.191406 805.941406 -41.929688 C 822.796875 -77.984375 845.535156 -105.828125 874.15625 -124.527344 C 879.328125 -127.988281 884.777344 -131.078125 890.320312 -133.890625 C 930.511719 -154.972656 982.179688 -160.925781 1035.59375 -151.222656 C 1065.085938 -145.921875 1093.859375 -135.894531 1121.984375 -126.417969 L 1127.921875 -124.410156 C 1147.507812 -117.757812 1166.535156 -111.378906 1186.203125 -106.304688 C 1209.859375 -100.414062 1234.15625 -95.828125 1257.898438 -91.515625 C 1269.769531 -89.359375 1282.011719 -87.019531 1294.066406 -84.773438 C 1313.824219 -80.808594 1338.585938 -75.761719 1361.414062 -69.125 C 1378.855469 -64.222656 1395.84375 -57.921875 1412.101562 -50.140625 C 1423.617188 -44.460938 1434.585938 -37.664062 1444.910156 -30.03125 C 1447.238281 -28.191406 1449.75 -26.257812 1451.984375 -24.234375 C 1491.722656 9.460938 1512.441406 55.03125 1507.570312 97.695312 C 1502.257812 144.066406 1468.019531 187.265625 1417.835938 210.351562 C 1369.21875 232.597656 1312.992188 234.683594 1269.257812 233.914062 C 1255.730469 233.714844 1241.921875 233.144531 1228.761719 232.664062 C 1191.789062 231.300781 1153.703125 229.851562 1116.386719 234.328125 C 1064.90625 240.371094 1024.132812 256.082031 995.261719 280.4375 C 1000.605469 274.753906 1006.691406 269.4375 1012.78125 264.582031 C 1040.738281 243.011719 1078.65625 229.820312 1128.65625 223.972656 C 1161.339844 219.984375 1194.976562 221.085938 1227.503906 222.105469 C 1239.734375 222.589844 1252.523438 222.886719 1264.660156 223.097656 C 1303.945312 223.519531 1354.890625 221.375 1398.976562 200.824219 C 1444.539062 179.613281 1476.109375 139.953125 1481.625 96.917969 C 1486.960938 55.179688 1466.902344 11.085938 1428.003906 -21.035156 C 1425.679688 -22.875 1423.351562 -24.714844 1421.027344 -26.558594 C 1400.007812 -42.007812 1375.394531 -53.449219 1340.691406 -63.167969 C 1319.070312 -69.4375 1296.625 -74.035156 1276.871094 -78 C 1265.742188 -80.253906 1254.519531 -82.320312 1243.761719 -84.390625 C 1222.152344 -88.34375 1199.988281 -92.574219 1178.648438 -98.011719 C 1161.023438 -102.542969 1144.128906 -108.101562 1125.476562 -114.296875 L 1120.371094 -116.121094 C 1094.382812 -124.773438 1067.652344 -133.796875 1040.292969 -138.738281 C 991.140625 -147.722656 943.085938 -142.535156 904.640625 -124.054688 C 899.835938 -121.804688 894.289062 -118.992188 888.75 -115.714844 C 859.84375 -98.308594 836.632812 -72.320312 819.761719 -38.578125 C 817.5625 -34.117188 815.273438 -29.46875 813.445312 -24.824219 C 798.617188 9.921875 791.503906 48.703125 786.046875 85.527344 L 785.0625 92.207031 C 773.519531 169.011719 761.527344 248.601562 713.945312 308.5625 C 693.605469 334.351562 667.402344 355.171875 642.125 375.519531 C 628.378906 386.535156 613.984375 397.925781 600.523438 410.234375 C 595.542969 414.714844 590.660156 419.46875 586.144531 424.40625 C 568.363281 443.136719 555.953125 461.746094 548.730469 480.136719 C 539.773438 502.988281 539.433594 526.160156 547.597656 545.667969 C 555.761719 565.175781 571.40625 580.285156 595.371094 592.105469 L 597.601562 593.203125 C 613.484375 600.804688 632.785156 606.625 656.34375 611.308594 C 740.09375 627.882812 802.761719 617.417969 847.679688 579.253906 C 877.472656 553.96875 895.449219 519.386719 909.0625 483.347656 C 908.609375 485.667969 908.4375 487.894531 907.984375 490.214844 L 907.714844 491.699219 C 907.449219 493.644531 907.179688 495.59375 906.914062 497.542969 C 895.742188 540.332031 877.488281 592.335938 836.429688 624.546875 Z M 845.070312 576.117188 C 801.257812 613.441406 739.699219 623.527344 657.15625 607.320312 C 633.96875 602.820312 615.132812 596.996094 599.433594 589.488281 C 574.726562 577.765625 559.640625 563.394531 551.386719 544.070312 C 543.601562 525.671875 544.039062 503.703125 552.632812 481.597656 C 559.578125 463.761719 571.804688 445.527344 589.125 427.261719 C 593.546875 422.511719 598.339844 417.941406 603.320312 413.464844 C 616.503906 401.246094 630.804688 390.042969 644.550781 379.027344 C 670.015625 358.769531 696.308594 337.765625 716.832031 311.605469 C 764.871094 250.714844 777.050781 170.753906 788.683594 93.296875 L 789.667969 86.621094 C 795.125 50.257812 802.148438 11.664062 816.789062 -22.714844 C 818.804688 -27.265625 820.820312 -31.820312 823.019531 -36.28125 C 839.519531 -69.277344 862.269531 -94.800781 890.4375 -111.648438 C 895.703125 -114.828125 901.246094 -117.640625 906.050781 -119.890625 C 943.851562 -137.996094 991.167969 -143.089844 1039.296875 -134.375 C 1066.378906 -129.339844 1093.015625 -120.597656 1118.722656 -111.847656 L 1123.828125 -110.023438 C 1141.835938 -103.917969 1159.375 -98.269531 1177.191406 -93.648438 C 1198.714844 -88.117188 1221.15625 -83.984375 1242.765625 -80.027344 C 1253.523438 -77.957031 1265.023438 -75.984375 1275.875 -73.640625 C 1295.539062 -69.488281 1317.796875 -64.980469 1339.417969 -58.710938 C 1356.769531 -54.085938 1373.664062 -47.601562 1389.917969 -39.816406 C 1399.953125 -34.871094 1409.429688 -29.269531 1418.359375 -22.554688 C 1420.777344 -20.902344 1422.917969 -19.152344 1425.152344 -17.128906 C 1463.027344 14.257812 1482.617188 56.964844 1477.550781 97.21875 C 1472.304688 138.769531 1441.5625 177.222656 1397.199219 197.867188 C 1353.761719 218.042969 1303.558594 220.09375 1264.546875 219.574219 C 1252.132812 219.460938 1239.4375 218.976562 1227.390625 218.585938 C 1194.679688 217.472656 1161.042969 216.371094 1127.894531 220.359375 C 1077.15625 226.304688 1038.59375 239.875 1009.988281 261.816406 C 1005.1875 265.460938 1000.671875 269.472656 996.339844 273.574219 C 1005.824219 262.769531 1016.519531 253.253906 1028.335938 245.214844 C 1055.480469 227.171875 1092.109375 215.65625 1140.164062 210.003906 C 1168.589844 206.6875 1197.777344 207.445312 1226.132812 208.027344 C 1237.34375 208.238281 1248.925781 208.636719 1260.230469 208.664062 C 1294.878906 208.648438 1339.617188 206.445312 1378.621094 188.242188 C 1418.265625 169.664062 1446.246094 134.46875 1451.789062 96.53125 C 1458.402344 50.339844 1430.015625 9.074219 1401.359375 -13.839844 C 1399.21875 -15.589844 1396.988281 -17.152344 1394.570312 -18.804688 C 1369.832031 -36.550781 1340.96875 -45.929688 1318.882812 -52.199219 C 1299.027344 -57.832031 1278.34375 -62.253906 1259.050781 -66.21875 C 1248.386719 -68.476562 1237.625 -70.546875 1227.238281 -72.433594 C 1208.226562 -76.03125 1188.84375 -79.8125 1169.734375 -84.613281 C 1154.148438 -88.601562 1138.554688 -93.515625 1121.480469 -99.164062 L 1117.117188 -100.625 C 1093.265625 -108.457031 1069.039062 -116.472656 1044 -120.964844 C 1000.320312 -128.867188 956.613281 -124.539062 920.75 -108.949219 C 915.757812 -106.789062 910.488281 -104.53125 905.683594 -101.816406 C 877.136719 -86.546875 854.378906 -62.875 837.402344 -32.191406 C 835.105469 -28.007812 833 -23.734375 831.074219 -19.367188 C 815.964844 13.621094 809.125 51.847656 803.835938 85.054688 C 791.820312 160.472656 779.445312 238.488281 733.070312 298.8125 C 713.378906 324.691406 687.921875 345.875 663.664062 366.5 C 651.398438 376.855469 638.851562 387.308594 626.867188 398.5 C 622.164062 402.882812 617.558594 407.542969 613.226562 412.109375 C 595.722656 430.746094 583.863281 448.238281 577.191406 465.515625 C 568.691406 487.4375 568.996094 510.234375 577.984375 528.070312 C 585.101562 542.210938 596.277344 552.804688 612.808594 560.957031 C 617.828125 563.429688 622.839844 565.441406 628.132812 567.355469 C 643.351562 572.550781 661.4375 576.15625 682.941406 577.976562 C 759.875 584.488281 815.015625 569.617188 856.597656 531.195312 C 884.074219 505.921875 901.867188 472.175781 916.601562 437.613281 C 915.070312 445.871094 913.726562 454.21875 912.472656 462.382812 C 898.148438 504.542969 879.566406 546.910156 845.070312 576.117188 Z M 853.707031 527.691406 C 813.046875 565.179688 758.832031 579.582031 683.195312 573.25 C 661.878906 571.519531 644.347656 568.191406 629.40625 562.898438 C 605.550781 554.601562 590.292969 542.921875 581.679688 525.730469 C 573.0625 508.542969 572.859375 487.414062 581.085938 466.511719 C 587.484375 449.792969 599.066406 432.859375 616.203125 414.5 C 620.535156 409.9375 625.050781 405.460938 629.753906 401.078125 C 641.460938 389.980469 654.28125 379.433594 666.273438 369.171875 C 690.808594 348.453125 716.359375 327.085938 736.417969 300.925781 C 783.25 239.671875 795.808594 161.285156 807.910156 85.21875 C 813.109375 52.195312 819.859375 14.15625 834.878906 -18.183594 C 836.804688 -22.550781 838.910156 -26.824219 841.113281 -30.824219 C 857.351562 -60.945312 879.929688 -83.78125 907.648438 -98.769531 C 912.359375 -101.300781 917.628906 -103.554688 922.617188 -105.714844 C 957.835938 -120.933594 1000.710938 -124.976562 1043.558594 -117.253906 C 1068.320312 -112.667969 1092.632812 -104.839844 1116.023438 -97.003906 L 1120.386719 -95.542969 C 1137.464844 -89.898438 1153.054688 -84.980469 1168.828125 -80.902344 C 1187.9375 -76.097656 1207.507812 -72.226562 1226.519531 -68.628906 C 1237.089844 -66.648438 1247.851562 -64.582031 1258.332031 -62.417969 C 1277.621094 -58.449219 1298.027344 -53.933594 1317.886719 -48.300781 C 1335.234375 -43.671875 1352.128906 -37.652344 1368.382812 -29.867188 C 1376.746094 -25.746094 1384.832031 -21.066406 1392.546875 -15.640625 C 1394.78125 -14.078125 1396.921875 -12.332031 1398.964844 -10.859375 C 1426.785156 11.410156 1454.328125 51.101562 1448.078125 95.625 C 1442.804688 132.078125 1415.839844 166.15625 1377.394531 184.171875 C 1338.945312 202.1875 1295.136719 204.386719 1260.761719 204.304688 C 1249.457031 204.277344 1237.875 203.878906 1226.847656 203.757812 C 1198.402344 202.902344 1169.121094 202.328125 1140.417969 205.738281 C 1091.621094 211.488281 1054.441406 223.191406 1026.648438 241.609375 C 1013.910156 250.117188 1002.382812 260.378906 992.4375 272.113281 C 979.089844 287.945312 967.96875 305.339844 958.988281 324.023438 C 956.78125 327.09375 954.851562 330.070312 952.832031 333.230469 C 967.042969 305.347656 985.226562 274.566406 1011.128906 250.132812 C 1021.269531 240.34375 1032.621094 231.84375 1044.8125 224.917969 C 1079.359375 205.441406 1122.871094 198.703125 1152.777344 195.195312 C 1177.035156 192.367188 1201.777344 192.78125 1225.867188 193.105469 C 1235.964844 193.234375 1246.4375 193.542969 1256.628906 193.484375 C 1286.550781 193.21875 1325.082031 190.960938 1358.90625 174.824219 C 1392.730469 158.6875 1417.304688 128.054688 1422.691406 95.125 C 1429.78125 51.707031 1402.894531 13.492188 1375.449219 -7.667969 C 1373.40625 -9.136719 1371.265625 -10.886719 1369.125 -12.171875 C 1346.625 -27.425781 1320.453125 -36.175781 1297.90625 -42.4375 C 1278.792969 -47.703125 1259.035156 -52.132812 1242.058594 -55.648438 C 1232.226562 -57.726562 1222.304688 -59.613281 1212.660156 -61.597656 C 1195.871094 -65.023438 1178.714844 -68.167969 1161.921875 -72.519531 C 1147.171875 -76.328125 1132.601562 -80.972656 1118.402344 -85.429688 L 1114.96875 -86.429688 C 1093.621094 -93.257812 1071.257812 -100.359375 1048.8125 -104.492188 C 1010.234375 -111.5 970.78125 -108.308594 937.683594 -95.515625 L 935.183594 -94.664062 C 931.210938 -93.160156 926.957031 -91.558594 922.980469 -89.589844 C 894.703125 -76.265625 871.191406 -54.351562 855.492188 -27.199219 C 853.105469 -23.292969 851.089844 -19.203125 849.070312 -15.113281 C 834.496094 14.441406 827.914062 48.402344 822.078125 83.652344 C 808.691406 162.324219 794.328125 231.730469 752.65625 288.136719 C 733.335938 314.195312 708.625 336.210938 684.832031 357.292969 C 674.503906 366.527344 663.808594 376.042969 653.390625 385.925781 C 648.964844 390.214844 644.449219 394.691406 640.488281 398.976562 C 629.433594 410.625 613.777344 428.789062 605.832031 450.058594 C 597.695312 471.234375 599.019531 493.378906 608.554688 509.636719 C 614.535156 519.519531 623.472656 527.625 633.96875 532.566406 C 641.863281 536.230469 650.03125 538.871094 658.65625 540.582031 C 675.628906 543.636719 692.679688 544.648438 709.816406 543.625 C 778.265625 540.171875 827.820312 520.703125 865.882812 482.390625 C 895.464844 452.378906 914.15625 413.53125 932.121094 376.171875 L 935.328125 369.664062 L 936.0625 368.175781 C 930.121094 383.503906 925.292969 399.378906 921.765625 415.433594 C 904.839844 456.308594 885.882812 498.03125 853.707031 527.691406 Z M 930.867188 367.464844 L 927.660156 373.972656 C 909.789062 411.144531 891.28125 449.621094 862.160156 479.167969 C 824.835938 516.917969 776.015625 535.828125 708.773438 539.179688 C 692.007812 540.390625 675.234375 539.28125 658.726562 536.226562 C 635.445312 531.445312 620.480469 522.449219 611.320312 507.304688 C 602.160156 492.15625 601.402344 471.214844 608.800781 451.523438 C 616.660156 430.902344 631.761719 413.394531 642.542969 401.839844 C 646.59375 397.367188 651.019531 393.078125 655.445312 388.789062 C 665.582031 379 676.28125 369.484375 686.609375 360.25 C 710.863281 339.164062 735.667969 316.964844 755.355469 290.621094 C 797.578125 233.566406 812.125 163.324219 825.417969 84.375 C 831.253906 49.585938 837.65625 16 852.046875 -13.183594 C 853.972656 -17.089844 856.175781 -21.085938 858.285156 -24.898438 C 873.433594 -51.398438 896.390625 -72.664062 924.113281 -85.796875 C 927.996094 -87.582031 932.0625 -89.273438 936.039062 -90.777344 L 938.628906 -91.8125 C 970.898438 -104.324219 1009.609375 -107.417969 1047.539062 -100.5 C 1069.980469 -96.367188 1091.976562 -89.449219 1113.320312 -82.621094 L 1116.753906 -81.621094 C 1130.953125 -77.160156 1145.523438 -72.519531 1160.460938 -68.621094 C 1177.34375 -64.453125 1194.78125 -60.9375 1211.382812 -57.605469 C 1221.027344 -55.621094 1230.953125 -53.730469 1240.597656 -51.75 C 1257.480469 -48.046875 1277.328125 -43.804688 1296.164062 -38.445312 C 1313.421875 -34.09375 1330.222656 -27.890625 1346.382812 -20.382812 C 1353.257812 -16.992188 1359.761719 -13.324219 1366.179688 -9.003906 C 1368.226562 -7.53125 1370.269531 -6.0625 1372.316406 -4.589844 C 1398.738281 15.832031 1424.78125 52.476562 1418.054688 94.222656 C 1412.847656 125.855469 1389.375 155.1875 1356.753906 170.757812 C 1324.132812 186.332031 1285.785156 188.683594 1256.046875 189.039062 C 1245.859375 189.097656 1235.292969 188.972656 1225.472656 188.75 C 1201.382812 188.425781 1176.179688 188.015625 1151.921875 190.84375 C 1121.734375 194.445312 1077.484375 201.28125 1042.476562 221.222656 C 1029.914062 228.429688 1018.289062 237.023438 1007.871094 246.910156 C 979.753906 273.484375 960.84375 307.144531 945.992188 336.332031 C 941.136719 346.644531 936.003906 357.054688 930.867188 367.464844 Z M 921.488281 432.859375 C 922.476562 427.570312 923.65625 422.375 924.738281 416.898438 C 925.289062 415.785156 925.558594 414.761719 926.109375 413.648438 C 924.839844 419.03125 923.574219 424.414062 922.394531 429.609375 C 922.03125 430.816406 921.945312 431.929688 921.488281 432.859375 Z M 1437.824219 223.675781 C 1384.402344 248.171875 1324.46875 250.277344 1273.136719 249 C 1258.496094 248.710938 1243.761719 248.148438 1229.304688 247.488281 C 1188.160156 245.6875 1145.625 243.890625 1104.050781 249.042969 C 1056.367188 254.878906 1017.714844 269.09375 988.929688 291.875 C 991.324219 289.359375 993.816406 287.121094 996.582031 284.785156 C 1024.804688 260.34375 1065.300781 244.726562 1116.503906 238.777344 C 1153.542969 234.394531 1191.441406 235.75 1228.136719 237.207031 C 1241.484375 237.78125 1255.289062 238.351562 1268.632812 238.457031 C 1312.832031 239.222656 1369.707031 237.230469 1419.058594 214.425781 C 1470.449219 190.773438 1505.789062 146.269531 1511.09375 98.507812 C 1515.957031 54.457031 1494.769531 7.496094 1454.097656 -27.117188 C 1451.679688 -29.234375 1449.167969 -31.167969 1446.839844 -33.007812 C 1424.792969 -50.121094 1397.765625 -62.753906 1362.226562 -73.117188 C 1339.214844 -79.839844 1314.359375 -84.703125 1294.417969 -88.757812 C 1282.453125 -91.191406 1270.117188 -93.347656 1258.246094 -95.503906 C 1234.691406 -99.722656 1210.394531 -104.308594 1186.921875 -110.105469 C 1167.441406 -115.09375 1148.414062 -121.472656 1129.015625 -128.03125 L 1123.074219 -130.039062 C 1095.042969 -139.699219 1065.992188 -149.636719 1036.128906 -155.117188 C 981.878906 -165 929.378906 -158.765625 888.171875 -137.492188 C 882.535156 -134.492188 877.085938 -131.402344 871.730469 -128.035156 C 842.554688 -108.683594 819.078125 -80.28125 802.132812 -43.574219 C 800.027344 -38.835938 797.832031 -33.910156 795.820312 -28.894531 C 780.457031 9.746094 773 53.445312 768.175781 87.113281 C 767.640625 91.472656 766.832031 95.925781 766.300781 100.285156 C 755.320312 178.757812 743.886719 259.546875 695.011719 319.792969 C 673.929688 345.679688 646.707031 366.226562 620.5 386.117188 C 605.089844 397.699219 589.21875 409.746094 574.648438 422.898438 C 569.390625 427.46875 564.414062 432.410156 559.625 437.441406 C 541.75 456.359375 528.605469 475.988281 520.832031 495.496094 C 511.417969 519.277344 510.339844 543.007812 517.769531 564.003906 C 525.484375 586.296875 541.886719 604.554688 567.816406 619.882812 C 571.90625 622.359375 576.273438 624.746094 580.917969 627.035156 C 596.800781 634.636719 613.328125 640.9375 630.214844 645.566406 C 720.316406 672.203125 790.605469 666.425781 839.042969 628.148438 C 870.875 602.941406 889.304688 566.503906 901.347656 531.308594 C 890.253906 588.464844 871.078125 641.402344 827.886719 673.253906 C 776.390625 711.179688 701.625 711.980469 605.449219 675.644531 C 563.953125 660.035156 507.015625 633.113281 491.636719 580.929688 C 476.070312 527.730469 512.1875 472.285156 551.195312 438.136719 C 566.96875 424.421875 584.226562 411.90625 601.117188 399.667969 C 628.710938 379.765625 657.046875 359.308594 679.144531 332.765625 C 730.515625 271.210938 741.75 188.011719 752.253906 107.6875 L 754.75 89.046875 C 766.257812 5.289062 787.171875 -87.234375 857.503906 -137.59375 C 862.855469 -141.425781 868.488281 -144.886719 874.21875 -148.070312 C 916.988281 -171.578125 972.910156 -178.664062 1031.617188 -167.972656 C 1063.425781 -162.226562 1094.707031 -151.191406 1124.871094 -140.707031 C 1147.519531 -132.773438 1171.003906 -124.660156 1194.660156 -118.769531 C 1220.359375 -112.339844 1246.878906 -107.578125 1272.570312 -103 C 1285.273438 -100.664062 1298.628906 -98.238281 1311.519531 -95.808594 C 1351.03125 -87.878906 1394.433594 -79.417969 1433.449219 -60.179688 C 1449.703125 -52.394531 1464.671875 -42.472656 1478.261719 -30.6875 C 1519.773438 5.5 1541.804688 54.03125 1537.222656 98.914062 C 1532.117188 149.546875 1493.1875 198.519531 1437.824219 223.675781 Z M 1060.460938 205.363281 C 1092.160156 190.722656 1130.859375 184.847656 1164.375 181.039062 C 1184.191406 178.792969 1204.480469 178.863281 1224.308594 178.933594 C 1233.480469 179.066406 1242.746094 179.015625 1252.101562 178.773438 C 1277.300781 178.257812 1309.902344 175.847656 1338.457031 161.964844 C 1367.011719 148.085938 1387.261719 122.945312 1392.484375 94.554688 C 1400.050781 53.917969 1374.757812 18.566406 1348.433594 -0.652344 C 1346.574219 -2.03125 1344.527344 -3.503906 1342.390625 -4.789062 C 1321.007812 -18.566406 1296.695312 -25.933594 1275.726562 -31.652344 C 1259.488281 -36.195312 1243.253906 -39.808594 1223.960938 -44.238281 C 1215.054688 -46.320312 1205.78125 -48.121094 1196.96875 -49.921875 C 1182.5 -52.898438 1167.382812 -55.960938 1152.816406 -59.679688 C 1140.292969 -62.851562 1127.671875 -66.761719 1115.421875 -70.492188 L 1111.617188 -71.675781 C 1092.40625 -77.683594 1072.546875 -83.777344 1052.148438 -87.367188 C 1018.667969 -93.476562 983.660156 -91.328125 953.324219 -81.332031 C 952.210938 -80.953125 950.824219 -80.484375 949.53125 -80.195312 C 946.199219 -79.066406 942.683594 -78.027344 939.171875 -76.523438 C 911.808594 -65.523438 888.46875 -46.296875 872.386719 -21.644531 C 870.179688 -18.109375 867.882812 -14.386719 865.773438 -10.574219 C 850.453125 18.152344 844.242188 52.292969 838.933594 82.257812 C 826.96875 149.613281 811.589844 220.140625 770.851562 277.464844 C 751.722656 304.546875 727.292969 327.390625 703.785156 349.769531 C 695.582031 357.511719 687.007812 365.53125 678.894531 373.546875 C 674.75 377.742188 670.601562 381.9375 666.640625 386.222656 C 654.109375 399.453125 640.484375 415.84375 633.359375 434.976562 C 625.871094 455.320312 627.652344 476.996094 638.199219 491.671875 C 642.867188 498.132812 649.195312 503.5625 656.53125 506.949219 C 667.308594 512.265625 679.082031 513.679688 688.164062 514 C 704.101562 514.460938 719.933594 512.796875 735.480469 509.371094 C 794.527344 496.890625 838.683594 472.910156 873.960938 433.6875 C 896.066406 409 912.589844 379.710938 928.652344 351.351562 C 932.964844 343.542969 937.648438 335.453125 942.238281 327.546875 C 948.023438 317.691406 953.71875 308.480469 959.140625 300.292969 C 981.109375 266.988281 1002.476562 243.324219 1026.378906 225.761719 C 1036.992188 217.824219 1048.445312 210.992188 1060.460938 205.363281 Z M 955.609375 298.089844 C 950.09375 306.464844 944.398438 315.671875 938.613281 325.527344 C 934.117188 333.246094 929.433594 341.335938 925.027344 349.332031 C 909.058594 377.507812 892.625 406.609375 870.984375 430.832031 C 836.257812 469.402344 792.929688 493.097656 734.71875 505.296875 C 719.636719 508.71875 703.894531 510.199219 688.328125 509.917969 C 665.714844 508.9375 650.949219 502.347656 641.429688 489.335938 C 631.910156 476.320312 630.042969 455.757812 637.167969 436.625 C 644.015625 418.050781 657.554688 402.308594 669.714844 389.355469 C 673.585938 385.253906 677.730469 381.0625 681.878906 376.867188 C 689.988281 368.847656 698.5625 360.828125 706.765625 353.089844 C 730.367188 330.527344 754.890625 307.492188 774.386719 280.132812 C 815.679688 222.15625 831.050781 151.164062 843.105469 83.160156 C 848.324219 53.382812 854.351562 19.609375 869.398438 -8.558594 C 871.417969 -12.183594 873.433594 -15.808594 875.824219 -19.253906 C 891.355469 -43.253906 914.046875 -62.105469 940.769531 -72.730469 C 944.003906 -74.140625 947.519531 -75.179688 950.847656 -76.3125 L 954.640625 -77.445312 C 984.144531 -87.160156 1018.414062 -89.210938 1051.335938 -83.378906 C 1071.273438 -79.785156 1091.132812 -73.6875 1110.15625 -67.773438 L 1113.960938 -66.589844 C 1126.210938 -62.863281 1138.832031 -58.949219 1151.542969 -55.6875 C 1166.292969 -51.878906 1181.226562 -48.90625 1195.878906 -45.839844 C 1204.691406 -44.035156 1213.964844 -42.234375 1222.683594 -40.246094 C 1242.070312 -36 1258.210938 -32.203125 1274.265625 -27.753906 C 1290.316406 -23.304688 1308.039062 -18.03125 1324.761719 -9.785156 C 1329.960938 -7.21875 1334.980469 -4.28125 1339.722656 -1.25 C 1341.675781 -0.0585938 1343.535156 1.320312 1345.394531 2.703125 C 1370.601562 21.371094 1394.960938 54.875 1387.753906 93.839844 C 1382.710938 120.933594 1363.472656 144.953125 1335.84375 158.367188 C 1308.121094 171.964844 1276.074219 174.1875 1251.25 174.886719 C 1242.167969 175.03125 1232.71875 174.992188 1223.453125 175.046875 C 1203.628906 174.976562 1183.152344 174.816406 1163.058594 177.15625 C 1129.261719 181.054688 1090.289062 187.027344 1058.03125 201.855469 C 1045.742188 207.578125 1034.011719 214.503906 1023.121094 222.539062 C 999.589844 240.28125 977.851562 264.226562 955.609375 298.089844 Z M 1176.253906 166.792969 C 1191.625 165.128906 1207.464844 164.851562 1222.75 164.761719 C 1230.902344 164.625 1239.519531 164.480469 1247.765625 164.15625 C 1268.234375 163.390625 1294.71875 160.734375 1318.003906 149.109375 C 1340.828125 137.484375 1357.488281 116.8125 1362.367188 93.800781 C 1370.503906 55.753906 1345.59375 22.90625 1321.695312 6.265625 C 1319.835938 4.886719 1317.882812 3.695312 1316.117188 2.589844 C 1297.339844 -8.976562 1276.925781 -14.886719 1253.917969 -21.148438 C 1237.585938 -25.503906 1221.261719 -29.394531 1205.953125 -33.011719 C 1197.699219 -35.003906 1189.351562 -36.8125 1181.375 -38.433594 C 1169.039062 -41.050781 1156.328125 -43.851562 1143.992188 -46.929688 C 1133.972656 -49.558594 1123.671875 -52.558594 1113.929688 -55.285156 L 1108.730469 -56.921875 C 1091.375 -62.476562 1073.84375 -66.730469 1056.035156 -70.429688 C 1027.378906 -75.546875 997.828125 -74.636719 969.515625 -67.335938 L 965.261719 -66.199219 C 962.117188 -65.441406 958.96875 -64.679688 955.917969 -63.644531 C 929.371094 -55.242188 906.203125 -38.707031 889.738281 -16.089844 C 887.441406 -12.832031 885.050781 -9.390625 883.121094 -5.949219 C 868.15625 19.71875 862.480469 49.964844 856.894531 79.5625 L 856.53125 81.230469 C 845.175781 141.722656 828.035156 211.148438 789.789062 267.160156 C 770.113281 295.820312 745.230469 320.988281 721.085938 345.128906 C 715.648438 350.535156 710.117188 356.128906 704.679688 361.535156 C 700.625 365.542969 696.757812 369.644531 693.164062 373.652344 C 681.28125 386.507812 667.832031 401.601562 661.074219 419.988281 C 653.859375 439.773438 656.472656 460.703125 667.84375 473.707031 C 671.386719 477.761719 675.757812 481.074219 680.589844 483.457031 C 690.4375 488.3125 702.949219 489.628906 718.042969 487.597656 C 733.039062 485.285156 747.75 481.21875 761.523438 475.300781 C 809.042969 456.210938 850.476562 425.109375 882.230469 385.074219 C 896.769531 366.828125 909.542969 346.550781 921.855469 327.199219 C 930.582031 313.25 939.679688 299.015625 949.152344 285.894531 C 955.222656 277.332031 961.664062 269.417969 968.109375 261.964844 C 990.761719 235.699219 1014.746094 215.636719 1041.539062 201.117188 C 1052.625 195.027344 1064.175781 189.863281 1076.011719 185.53125 C 1106.070312 175.164062 1139.121094 170.898438 1176.253906 166.792969 Z M 1039.941406 197.324219 C 1012.691406 212.3125 988.429688 232.46875 965.316406 259.203125 C 958.871094 266.652344 952.523438 274.84375 946.175781 283.5 C 936.703125 296.625 927.511719 311.042969 918.785156 324.992188 C 906.472656 344.34375 893.886719 364.25 879.34375 382.496094 C 848.050781 422.066406 807.078125 452.703125 760.203125 471.414062 C 746.523438 477.144531 732.277344 481.214844 717.554688 483.429688 C 696.261719 486.332031 680.953125 482.25 671.074219 470.90625 C 660.820312 459.378906 658.492188 439.28125 664.972656 421.449219 C 671.367188 403.804688 684.445312 388.992188 696.144531 376.507812 C 699.921875 372.59375 703.792969 368.492188 707.660156 364.390625 C 713.191406 358.800781 718.628906 353.390625 723.878906 347.894531 C 748.117188 323.566406 773.1875 298.488281 793.042969 269.460938 C 831.65625 212.703125 848.796875 142.816406 860.332031 81.949219 L 860.695312 80.28125 C 866.285156 51.144531 871.871094 21.085938 886.378906 -3.652344 C 888.304688 -7.089844 890.605469 -10.347656 892.8125 -13.417969 C 908.632812 -35.199219 931.152344 -51.359375 956.867188 -59.480469 C 959.828125 -60.332031 962.972656 -61.089844 965.933594 -61.941406 C 967.320312 -62.414062 968.800781 -62.605469 970.1875 -63.078125 C 997.945312 -70.1875 1026.847656 -71.1875 1054.851562 -66.160156 C 1072.566406 -62.738281 1090.007812 -58.296875 1107.179688 -52.835938 L 1112.375 -51.199219 C 1122.304688 -48.382812 1132.511719 -45.195312 1142.625 -42.75 C 1155.148438 -39.578125 1167.855469 -36.78125 1180.191406 -34.164062 C 1188.167969 -32.539062 1196.515625 -30.734375 1204.773438 -28.742188 C 1219.894531 -25.214844 1236.21875 -21.324219 1252.550781 -16.96875 C 1270.917969 -12.070312 1287.621094 -7.070312 1303.042969 0.535156 C 1306.574219 2.277344 1310.195312 4.292969 1313.636719 6.21875 C 1315.402344 7.320312 1317.351562 8.515625 1319.027344 9.804688 C 1341.902344 25.707031 1365.878906 57.171875 1358.101562 93.085938 C 1353.308594 114.984375 1337.570312 134.722656 1315.855469 145.507812 C 1293.214844 156.757812 1267.285156 159.222656 1247.1875 160.175781 C 1238.941406 160.5 1230.511719 160.734375 1222.175781 160.78125 C 1206.796875 161.054688 1190.769531 161.238281 1175.308594 163.089844 C 1137.898438 167.289062 1104.382812 171.558594 1074.421875 182.207031 C 1062.859375 185.980469 1051.121094 191.050781 1039.941406 197.324219 Z M 1220.730469 150.132812 C 1228.230469 149.902344 1236.011719 149.578125 1243.699219 148.980469 C 1266.945312 147.269531 1283.785156 143.097656 1297.828125 135.695312 C 1315.109375 126.882812 1327.71875 111.148438 1332.714844 92.582031 C 1341.699219 57.496094 1318.101562 27.605469 1295.324219 12.441406 C 1293.558594 11.339844 1291.789062 10.238281 1290.023438 9.136719 C 1272.738281 -0.773438 1253.441406 -5.667969 1234.699219 -10.75 L 1232.472656 -11.386719 C 1216.980469 -15.558594 1201.671875 -19.179688 1188.5 -22.441406 C 1181.078125 -24.25 1173.378906 -25.96875 1166.144531 -27.6875 C 1156.125 -29.855469 1145.828125 -32.390625 1135.714844 -34.835938 C 1128.296875 -36.644531 1121.058594 -38.828125 1113.914062 -40.734375 L 1106.582031 -42.730469 C 1091.550781 -46.90625 1076.058594 -51.082031 1060.199219 -54.046875 C 1035.71875 -58.265625 1010.792969 -58.304688 986.171875 -53.808594 L 982.101562 -53.042969 C 979.136719 -52.65625 976.082031 -52.082031 973.125 -51.230469 C 946.195312 -44.867188 923.570312 -30.835938 907.648438 -11.1875 C 905.253906 -8.207031 903.046875 -5.136719 901.023438 -1.972656 C 886.414062 20.632812 880.816406 48.375 875.492188 75.097656 L 874.585938 79.273438 C 859.238281 154.898438 838.503906 210.996094 809.1875 255.929688 C 787.589844 288.953125 760.132812 317.933594 733.785156 346.078125 L 731.386719 348.59375 C 727.609375 352.507812 724.109375 356.328125 720.519531 360.332031 C 707.710938 374.125 695.832031 387.90625 689.804688 404.347656 C 683.050781 423.199219 686.589844 444.125 698.691406 455.179688 C 701.207031 457.574219 703.996094 459.410156 707.152344 460.96875 C 718.113281 466.375 732.195312 466.386719 748.9375 460.542969 C 762.898438 455.644531 776.300781 449.078125 788.671875 440.851562 C 825.140625 417.007812 857.949219 383.734375 891.789062 336.179688 C 899.148438 325.941406 906.039062 315.242188 912.933594 305.007812 C 926.722656 284.078125 941.058594 262.492188 957.359375 243.953125 C 963.902344 236.78125 970.8125 229.789062 978.097656 223.445312 C 1001.429688 202.828125 1028.398438 187.011719 1057.710938 176.277344 C 1069.085938 171.949219 1080.742188 168.453125 1092.582031 165.511719 C 1117.382812 159.714844 1144.699219 156.777344 1170.996094 154.03125 C 1176.832031 153.441406 1182.664062 152.851562 1188.589844 152.078125 C 1199.054688 150.996094 1209.890625 150.5625 1220.730469 150.132812 Z M 1170.234375 149.957031 C 1143.660156 152.796875 1116.25 155.457031 1091.265625 161.625 C 1079.238281 164.476562 1067.488281 168.15625 1055.929688 172.394531 C 1026.339844 183.222656 998.910156 199.507812 975.023438 220.3125 C 967.648438 226.84375 960.550781 233.742188 953.828125 241.289062 C 937.25 259.917969 922.816406 281.6875 908.9375 302.808594 C 902.230469 313.132812 895.152344 323.738281 888.074219 333.882812 C 854.691406 380.972656 822.253906 413.964844 786.152344 437.53125 C 774.058594 445.660156 760.9375 452.132812 747.25 456.9375 C 727.273438 463.726562 711.699219 462.054688 701.179688 452.476562 C 690.378906 442.527344 687.035156 423.546875 693.335938 406.089844 C 699.089844 390.207031 710.785156 376.792969 723.128906 363.46875 C 726.71875 359.464844 730.40625 355.734375 734 351.730469 L 736.394531 349.210938 C 763.019531 320.976562 790.566406 291.808594 812.347656 258.414062 C 851.222656 198.78125 868.546875 128.058594 878.296875 80.179688 L 879.203125 76.003906 C 884.53125 49.742188 889.945312 22.371094 904.1875 0.511719 C 906.210938 -2.652344 908.324219 -5.539062 910.628906 -8.332031 C 926 -27.328125 947.792969 -40.613281 973.980469 -46.878906 C 976.847656 -47.546875 979.902344 -48.117188 982.679688 -48.597656 C 983.976562 -48.882812 985.457031 -49.078125 986.753906 -49.363281 C 1010.820312 -53.671875 1035.371094 -53.8125 1059.386719 -49.59375 C 1075.0625 -46.71875 1090.371094 -42.636719 1105.585938 -38.367188 L 1112.730469 -36.464844 C 1119.875 -34.558594 1127.390625 -32.46875 1134.535156 -30.5625 C 1144.832031 -28.027344 1154.945312 -25.582031 1164.960938 -23.417969 C 1172.289062 -21.882812 1179.894531 -19.980469 1187.316406 -18.171875 C 1200.304688 -15 1215.796875 -11.289062 1231.105469 -7.207031 L 1233.332031 -6.570312 C 1249.664062 -2.214844 1266.453125 2.136719 1281.6875 9.648438 C 1283.734375 10.65625 1285.777344 11.664062 1287.726562 12.855469 C 1289.679688 14.050781 1291.167969 14.785156 1292.65625 15.980469 C 1314.503906 30.21875 1336.796875 58.542969 1328.355469 91.585938 C 1323.628906 109.132812 1311.570312 123.75 1295.492188 132 C 1281.820312 139.121094 1265.71875 143.199219 1242.9375 144.90625 C 1235.25 145.507812 1227.46875 145.828125 1219.964844 146.058594 C 1209.128906 146.492188 1198.105469 146.832031 1187.273438 148.191406 C 1181.902344 148.777344 1176.066406 149.367188 1170.234375 149.957031 Z M 1277.5625 122.464844 C 1289.664062 115.722656 1298.589844 104.640625 1302.96875 91.546875 C 1312.445312 61.558594 1292.5625 33.496094 1268.769531 18.988281 C 1267.1875 17.980469 1265.515625 17.15625 1263.84375 16.332031 C 1249.445312 9 1233.484375 4.828125 1218.269531 1.023438 L 1210.851562 -0.789062 L 1170.863281 -11.03125 C 1163.070312 -13.027344 1155.277344 -15.019531 1147.578125 -16.738281 C 1140.804688 -18.457031 1133.941406 -19.996094 1126.984375 -21.808594 L 1116.964844 -24.4375 C 1112.234375 -25.617188 1107.5 -26.792969 1102.769531 -27.972656 C 1089.226562 -31.414062 1076.792969 -34.308594 1063.996094 -36.460938 C 1043.597656 -40.050781 1023.023438 -40.953125 1002.277344 -39.164062 L 999.871094 -38.964844 C 996.535156 -38.761719 993.109375 -38.371094 989.871094 -37.886719 C 963.207031 -33.933594 941.03125 -22.6875 925.097656 -5.355469 C 922.609375 -2.652344 920.308594 0.140625 918.378906 3.117188 C 904.03125 23.3125 898.605469 48.367188 893.636719 72.492188 L 892.277344 78.523438 C 877.988281 144.5 856.972656 199.304688 828.21875 245.902344 C 806.082031 281.898438 778.730469 313.472656 757.269531 336.859375 C 753.859375 340.492188 750.359375 344.3125 747.136719 348.039062 L 746.675781 348.503906 C 735.253906 360.898438 723.367188 373.753906 717.710938 389.914062 C 712.234375 405.703125 714.109375 427.191406 728.617188 437.582031 C 730.195312 438.59375 731.589844 439.511719 733.265625 440.335938 C 749.425781 448.304688 768.378906 440.320312 778.8125 434.140625 C 792.023438 426.558594 803.925781 417.40625 814.710938 406.78125 C 845.679688 376.757812 869.289062 338.253906 894.179688 297.609375 L 900.152344 287.84375 C 918.796875 257.523438 937.902344 226.273438 964.460938 202.394531 C 971.46875 196.144531 978.941406 190.355469 987.066406 185.117188 C 1010.980469 169.410156 1038.996094 158.496094 1072.867188 151.628906 C 1083.695312 149.34375 1095.265625 147.421875 1108.042969 145.867188 C 1124.0625 143.828125 1141.011719 142.710938 1157.3125 141.503906 C 1171.390625 140.589844 1186.023438 139.488281 1200.1875 137.921875 C 1205.558594 137.335938 1211.023438 137.027344 1216.394531 136.441406 C 1224.082031 135.839844 1231.953125 135.332031 1239.730469 134.082031 C 1255.5625 131.949219 1267.585938 128.175781 1277.5625 122.464844 Z M 883.175781 284.328125 C 863.492188 328.464844 842.886719 373.996094 806.449219 404.324219 C 800.269531 409.367188 779.414062 424.964844 762.136719 416.445312 L 760.835938 415.800781 C 747.640625 408.371094 744.855469 389.664062 749.507812 376.015625 C 754.160156 362.363281 764.386719 351.460938 774.335938 340.652344 L 776.824219 337.953125 C 843.976562 264.53125 891.308594 175.101562 913.769531 78.027344 C 914.3125 75.523438 914.855469 73.019531 915.585938 70.605469 C 920.382812 49.167969 925.546875 26.988281 939.074219 9.855469 C 941.007812 7.34375 943.308594 5.011719 945.523438 2.867188 C 962.945312 -13.730469 989.582031 -22.316406 1018.773438 -21.09375 C 1045.460938 -19.949219 1072.730469 -14.824219 1098.328125 -9.59375 C 1114.09375 -6.441406 1129.867188 -1.898438 1145.175781 2.183594 L 1152.136719 3.996094 C 1164.941406 7.539062 1176.816406 10.621094 1188.132812 13.429688 C 1191.84375 14.335938 1195.742188 15.332031 1199.542969 16.050781 C 1211.789062 18.855469 1224.496094 21.652344 1235.921875 27.058594 L 1237.40625 27.789062 C 1257.84375 37.867188 1280.394531 62.855469 1269.230469 89.238281 C 1262.09375 106.054688 1242.785156 116.175781 1211.671875 119.320312 C 1188.058594 121.773438 1163.875 121.632812 1140.527344 121.675781 C 1123.203125 121.683594 1105.414062 121.691406 1088.09375 122.625 C 1037.523438 125.417969 998.761719 136.578125 969.6875 157.136719 C 926.671875 187.226562 904.605469 236.660156 883.175781 284.328125 Z M 1215.910156 132.273438 C 1210.628906 132.671875 1205.074219 133.167969 1199.703125 133.753906 C 1185.351562 135.226562 1171.179688 136.328125 1157.011719 137.429688 C 1140.710938 138.636719 1123.761719 139.753906 1107.46875 141.886719 C 1094.414062 143.535156 1082.65625 145.363281 1071.828125 147.652344 C 1037.585938 154.796875 1009.015625 165.898438 984.640625 181.609375 C 976.515625 186.847656 968.761719 192.730469 961.570312 199.351562 C 934.644531 223.511719 915.359375 255.132812 896.617188 285.640625 L 890.648438 295.40625 C 877.878906 316.148438 865.664062 336.234375 852.515625 354.941406 C 865.554688 333.179688 876.363281 309.390625 886.707031 286.066406 C 907.953125 238.769531 929.929688 189.988281 971.652344 160.644531 C 999.988281 140.648438 1038.195312 129.679688 1088.023438 126.980469 C 1105.347656 126.046875 1123.132812 126.039062 1140.460938 126.03125 C 1163.992188 126.082031 1188.265625 126.035156 1212.066406 123.675781 C 1244.660156 120.335938 1265.078125 109.375 1272.949219 91.070312 C 1285.667969 61.527344 1259.765625 33.964844 1237.382812 23.621094 C 1225.496094 18.21875 1212.601562 15.328125 1200.171875 12.433594 C 1196.460938 11.527344 1192.472656 10.714844 1188.761719 9.8125 C 1177.257812 6.910156 1165.570312 3.921875 1152.949219 0.472656 L 1145.992188 -1.34375 C 1130.683594 -5.425781 1114.816406 -9.78125 1098.957031 -13.214844 C 1073.171875 -18.535156 1045.90625 -23.660156 1018.753906 -24.800781 C 988.449219 -26.109375 960.796875 -16.867188 942.636719 0.289062 C 940.148438 2.527344 937.9375 5.136719 935.726562 7.742188 C 921.460938 25.433594 916.484375 48.171875 911.414062 70.164062 C 910.871094 72.671875 910.328125 75.175781 909.691406 77.402344 C 887.132812 173.734375 840.351562 262.515625 773.660156 335.46875 L 771.265625 337.984375 C 761.132812 349.164062 750.535156 360.34375 745.703125 374.832031 C 740.503906 390.0625 743.300781 411.082031 758.910156 419.707031 L 760.027344 420.253906 C 771.730469 426.027344 787 423.160156 802.328125 412.691406 C 794.394531 419.410156 785.808594 425.574219 776.757812 430.816406 C 766.136719 436.902344 746.074219 445.265625 730.914062 434.324219 C 717.988281 424.945312 716.21875 405.585938 721.421875 391.28125 C 726.902344 375.960938 738.324219 363.566406 749.65625 351.359375 L 750.117188 350.894531 C 753.523438 347.261719 757.023438 343.441406 760.246094 339.714844 C 781.804688 316.144531 809.242188 284.382812 831.472656 248.199219 C 860.5 201.042969 881.703125 145.871094 895.988281 79.429688 L 897.53125 73.023438 C 902.59375 49.175781 907.835938 24.492188 921.722656 5.230469 C 923.75 2.53125 925.773438 -0.167969 928.167969 -2.6875 C 947.328125 -23.742188 972.765625 -31.300781 990.726562 -34 C 993.964844 -34.484375 997.300781 -34.6875 1000.449219 -34.984375 L 1002.855469 -35.183594 C 1023.046875 -36.78125 1043.433594 -35.972656 1063.460938 -32.566406 C 1076.257812 -30.414062 1088.414062 -27.425781 1101.957031 -23.980469 C 1106.6875 -22.804688 1111.417969 -21.625 1115.875 -20.355469 L 1126.078125 -17.632812 C 1132.851562 -15.910156 1139.625 -14.1875 1146.675781 -12.5625 C 1154.46875 -10.566406 1162.167969 -8.851562 1169.960938 -6.855469 C 1183.320312 -3.503906 1196.492188 -0.242188 1209.945312 3.386719 L 1217.367188 5.199219 C 1231.933594 8.914062 1246.960938 12.628906 1260.523438 19.316406 L 1262.195312 20.140625 C 1263.867188 20.964844 1265.261719 21.882812 1266.933594 22.707031 C 1289.335938 36.296875 1308.003906 62.601562 1299.351562 90.457031 C 1295.429688 102.621094 1286.960938 112.769531 1275.78125 119.042969 C 1266.175781 124.476562 1254.519531 127.972656 1239.152344 130.097656 C 1231.28125 131.070312 1223.59375 131.671875 1215.910156 132.273438 Z M 1215.910156 132.273438 " fill-opacity="1" fill-rule="nonzero"/></g></g></g></svg>